<?xml version="1.0" encoding="utf-8"?>
<!-- Generator: Adobe Illustrator 17.0.1, SVG Export Plug-In . SVG Version: 6.00 Build 0)  -->
<!DOCTYPE svg PUBLIC "-//W3C//DTD SVG 1.1//EN" "http://www.w3.org/Graphics/SVG/1.1/DTD/svg11.dtd">
<svg version="1.1" id="Layer_1" xmlns="http://www.w3.org/2000/svg" xmlns:xlink="http://www.w3.org/1999/xlink" x="0px" y="0px"
	 width="8.574px" height="10.135px" viewBox="0 0 8.574 10.135" style="enable-background:new 0 0 8.574 10.135;"
	 xml:space="preserve">
<g>
	<path d="M8.092,0.06c0.295,0.114,0.482,0.389,0.482,0.69v8.634c0,0.301-0.188,0.576-0.482,0.69
		c-0.094,0.04-0.194,0.054-0.294,0.054c-0.208,0-0.402-0.074-0.556-0.214l-2.954-2.84l-2.954,2.84
		c-0.154,0.141-0.348,0.221-0.556,0.221c-0.1,0-0.201-0.02-0.294-0.06C0.188,9.961,0,9.686,0,9.385V0.75
		c0-0.302,0.188-0.576,0.482-0.69C0.576,0.02,0.677,0,0.777,0c0.208,0,6.813,0,7.021,0C7.898,0,7.998,0.02,8.092,0.06z"/>
</g>
</svg>
